<svg xmlns="http://www.w3.org/2000/svg" viewBox="0 0 504 79" width="509" height="79">
<g>
	<g>
		<path fill="#00548B" d="M213.1,75.7V64.3C203.9,64,198,58.2,198,49.4V35.1h15.2V24.9H198V13.3h-11.2v37.2
			C186.8,64.6,198.1,75.4,213.1,75.7z"/>
		<path fill="#00548B" d="M307.5,75.7V64.3c-9.2-0.3-15.1-6.1-15.1-14.9V35.1h15.2V24.9h-15.2V13.3h-11.2v37.2
			C281.1,64.6,292.5,75.4,307.5,75.7z"/>
		<path fill="#00548B" d="M339.8,75.7V64.3c-9.2-0.3-15.1-6.1-15.1-14.9V35.1h15.2V24.9h-15.2V13.3h-11.2v37.2
			C313.4,64.6,324.7,75.4,339.8,75.7z"/>
		<path fill="#00548B" d="M372.2,75.7c6.5,0,12.7-2.1,17.9-6l0.8-0.6v6.6H402V45.9c0-1.1-0.1-2.3-0.2-3.4c-0.2-2-0.7-4-1.3-6
			C396.4,24.2,385,16,372.2,16c-16.4,0-29.8,13.4-29.8,29.9C342.4,62.3,355.7,75.7,372.2,75.7z M372.2,27.1c7.3,0,13.6,4.1,17,11
			c1.1,2.4,1.7,5.1,1.7,7.8c0,10.3-8.4,18.7-18.7,18.7c-10.3,0-18.7-8.4-18.7-18.7C353.5,35.5,361.9,27.1,372.2,27.1z"/>
		<path fill="#00548B" d="M245.7,75.7c6.5,0,12.7-2.1,17.9-6l0.8-0.6v6.6h11.1V45.9c0-1.1-0.1-2.3-0.2-3.4c-0.2-2-0.7-4-1.3-6
			c-4-12.3-15.4-20.5-28.3-20.5c-16.4,0-29.8,13.4-29.8,29.9C215.9,62.3,229.2,75.7,245.7,75.7z M245.7,27.1c7.3,0,13.6,4.1,17,11
			c1.1,2.4,1.7,5.1,1.7,7.8c0,10.3-8.4,18.7-18.7,18.7c-10.3,0-18.7-8.4-18.7-18.7C227,35.5,235.4,27.1,245.7,27.1z"/>
		<path fill="#00548B" d="M153.7,27.6c9.1,0,16,7.3,16,16.9v31.2h11.4V43.4c0-15.1-12.3-27.5-27.4-27.5c-15.1,0-27.4,12.3-27.4,27.5
			v32.3h11.6V44.5C137.8,34.8,144.7,27.6,153.7,27.6z"/>
	</g>
	<path fill="#00548B" d="M47.3,56.8c-3.5,4.7-9.2,7.7-15.4,7.7c-10.5,0-19-8.5-19-19c0-10.5,8.5-19,19-19c6.4,0,12.3,3.2,15.7,8.1
		h12.1c-4.3-11.1-15.2-19-27.8-19C15.4,15.7,2,29.1,2,45.5C2,62,15.4,75.4,31.9,75.4c12.5,0,23.2-7.7,27.7-18.6H47.3z"/>
	<path fill="#00548B" d="M122.7,45.5c0,16.5-13.4,29.9-29.9,29.9C76.3,75.4,63,62,63,45.5c0-16.5,13.4-29.9,29.9-29.9
		C109.3,15.7,122.7,29.1,122.7,45.5 M92.8,26.6c-10.5,0-19,8.5-19,19c0,10.5,8.5,19,19,19c10.5,0,19-8.5,19-19
		C111.8,35.1,103.3,26.6,92.8,26.6"/>
</g>
<g>
	<g>
		<path fill="#207ABF" d="M470.5,31.2l-6.5,5.1c-1,0.7-2.1,1.1-3.3,1.1s-2.4-0.4-3.3-1.1l-6.5-5.1l-27.5,21.4
			c0.3,0.4,0.5,0.8,0.8,1.2c1.8,2.4,8,4.2,16,5.2c0.7,0.1,1.2,0.8,1,1.5l-3.4,13.8c-0.3,1.1,1,1.9,1.9,1.3l19.9-14.8
			c0.4-0.3,0.9-0.5,1.4-0.5c16.6,0,33.1-2.2,36.3-6.4c0.3-0.4,0.5-0.8,0.8-1.2L470.5,31.2z"/>
	</g>
	<g>
		<path fill="#207ABF" d="M424.4,6.1l35.1,27.3c0.3,0.3,0.7,0.4,1.1,0.4s0.8-0.1,1.1-0.4l35.1-27.3C489.1-2,432.2-2,424.4,6.1z"/>
	</g>
	<g>
		<path fill="#207ABF" d="M498.7,9.2l-25.3,19.7l26,20.2C503.1,38.5,502.8,18.5,498.7,9.2z"/>
	</g>
	<g>
		<path fill="#207ABF" d="M422.5,9.2c-4.1,9.3-4.3,29.3-0.7,39.9l26-20.2L422.5,9.2z"/>
	</g>
</g>
<g>
	<path fill="#00548B" d="M401.5,21.7v-6.3h-2.2v-0.8h5.4v0.8h-2.3v6.3H401.5z"/>
	<path fill="#00548B" d="M411.9,21.7v-5.8l-2.4,5.8h-0.4l-2.4-5.8v5.8h-0.9v-7.1h1.3l2.2,5.3l2.2-5.3h1.3v7.1H411.9z"/>
</g>
</svg>
